<?xml version="1.0"?><svg width="500" height="500" xmlns="http://www.w3.org/2000/svg">
 <title>Surfboard</title>
 <g>
  <title>Layer 1</title>
  <g id="Color">
   <linearGradient transform="translate(200,21) translate(-203,-17) " y2="0" x2="0.500001" y1="0.999999" x1="0.500001" id="SVGID_1_">
    <stop offset="0.1227" stop-color="#ffffff"/>
    <stop offset="0.8098" stop-color="#ffffff"/>
    <stop offset="0.8589" stop-color="#fcee21"/>
   </linearGradient>
   <g id="Layer_6">
    <linearGradient transform="translate(200,21) translate(-203,-17) " y2="0" x2="0.500005" y1="0.999998" x1="0.500005" id="SVGID_2_">
     <stop offset="0" stop-color="#fcee21"/>
     <stop offset="1" stop-color="#fcee21"/>
    </linearGradient>
    <path d="m176,349.5c0,0 37,120.5 109,65c-5.5,16 -19.5,59.5 -27,59.5c-7.5,0 -19.5,-9.5 -19.5,-9.5c0,0 -14.5,17 -19.5,11c-5,-6 -29,-55.5 -43,-126" fill="#ffffff" id="svg_2"/>
   </g>
   <g id="Layer_4">
    <path d="m168,310.666992c0,0 56.667007,179.333008 128,67.333008c8.666992,-39.333008 43.332001,-174 -2.666992,-270.667c-33.333008,-9.333 -117.333008,-2 -119.333008,61.334007c0,38 28.332993,57.666992 52,65.332993c23.667007,7.666 -47.332993,-2 -63.667007,-61.332993c9,-35.667007 21.667007,-70.667007 21.667007,-70.667007c0,0 36.667999,-53.333 85.334015,-43.667c16,23.667 42.665985,76.167 46.165985,126.667c3.5,50.5 2.5,113.5 -21.5,206c-6.5,25.5 -15.5,47 -15.5,47c0,0 -61.5,80 -106.5,-98c-1,-6 -4,-29.333008 -4,-29.333008" fill="#00ffff" id="svg_3"/>
   </g>
   <g id="Layer_5">
    <linearGradient transform="translate(200,21) translate(-203,-17) " y2="0.5" x2="0.999997" y1="0.5" x1="0" id="SVGID_3_">
     <stop offset="0" stop-color="#e56525"/>
     <stop offset="0.9755" stop-color="#e56525"/>
    </linearGradient>
    <path d="m256.5,195.5c0,0 -24.5,-4.5 -30,-29.5c-5.5,-25 13.5,-38.5 25,-42.5c11.5,-4 38.5,-5 58,25.5c3.5,21.5 14,97.5 -4,174c-16,25 -34,26.5 -38.5,27.5c14,-8.5 40.088989,-25.619995 44.5,-69c1.5,-14.75 3.488007,-12.740997 2.25,-21.75c-8.25,-60 -17.75,-87.75 -32.25,-104.75c-17,-22.5 -36,-24.5 -45.5,-11c-9.5,13.5 -2,29.5 3.5,37c5.5,7.5 10.5,11.5 17,14.5z" fill="#ff00ff" id="svg_4"/>
   </g>
   <g id="Layer_3">
    <path d="m164,285c0,0 53,196 137,65c12,-67 17,-93 14,-162c-10,-37 -56,-113.333 -119,-60c-21.667007,19.332993 -38,79 29,102c-25,-8 -88,-47.332993 -35,-115c12,-15 60.332993,-37.667 103,-17c15,43 45,118 0,289c-19,24 -65,101 -127,-78c0,-13 -2,-24 -2,-24" fill="#7f00ff" id="svg_5"/>
   </g>
  </g>
  <path d="m240,16.825001c-159.649002,138.596996 -32.455994,442.982006 -25.438004,458.771984c7.018005,15.790009 25.438004,-7.017975 25.438004,-7.017975c0,0 18.420013,22.807983 25.437988,7.017975c7.018005,-15.789978 134.210022,-320.174988 -25.437988,-458.771984zm24.382996,450.085003c-6.72699,15.136993 -24.382996,-6.72699 -24.382996,-6.72699c0,0 -17.656998,21.862976 -24.384003,6.72699c-6.725998,-15.13501 -128.645996,-306.89801 24.384003,-439.748104c153.028992,132.850094 31.109009,424.613094 24.382996,439.748104z" fill="#5f00bf" id="svg_6"/>
  <text xml:space="preserve" y="234" x="222" text-anchor="middle" stroke-width="0" stroke-linejoin="null" stroke-linecap="null" stroke-dasharray="null" fill="#000000" font-size="24" font-family="Arial" id="svg_9"/>
 </g>
</svg>