<?xml version="1.0"?><svg width="744.094" height="1052.36" xmlns="http://www.w3.org/2000/svg">
 <title>Surf Board</title>
 <defs>
  <pattern height="255.621" width="263.158" patternTransform="translate(-23.6786 0.94443)" patternUnits="userSpaceOnUse" id="pattern2124">
   <path d="m120.411003,131.576996c3.968994,5.468002 -5.412003,8.046997 -9.087006,6.596008c-9.959,-3.932007 -9.516998,-17.419006 -4.103996,-24.770004c9.684998,-13.149002 29.188995,-11.770996 40.453003,-1.612c16.529999,14.908997 14.119995,41.126999 -0.880005,56.134003c-19.990997,20.002991 -53.127701,16.511002 -71.816696,-3.37001c-23.518204,-25.019989 -18.924202,-65.159393 5.862495,-87.499992c30.020203,-27.0578 77.2062,-21.350502 103.182198,8.353996c30.612,35.006004 23.785004,89.264008 -10.845993,118.865005c-39.98201,34.173996 -101.328705,26.223999 -134.546703,-13.337997c-37.7445,-44.952011 -28.667999,-113.398407 15.8288,-150.229103c49.9189,-41.318532 125.471901,-31.114242 165.911903,18.3204c44.896011,54.882702 33.561996,137.547695 -20.811996,181.594692" fill="none" id="path2126"/>
  </pattern>
 </defs>
 <g>
  <title>Layer 1</title>
  <g id="layer1">
   <g id="g2369">
    <path d="m408.25,973.218994l7.843994,0c0,0 32.416992,-53 50.062012,-176.687988c2.373993,-16.642029 4.494995,-34.468994 6.218994,-53.718018c4.894012,-54.653992 7.464996,-119.492004 8.187988,-182.656982c0.835022,-73.02301 -0.826996,-143.791992 -4.687988,-193.718018c-1.104004,-14.276978 -3.774994,-34.547974 -7.25,-57.093994c-9.393005,-60.947998 -25.097992,-139.619995 -34.937012,-169.780991c-9.256989,-28.375 -17.727997,-48.382904 -25.437988,-63.250504l0,896.906494z" fill="#ff0000" id="path2344"/>
    <path d="m329.125,76.5625c-7.71701,14.859703 -16.175995,34.706497 -25.406006,63.000504c-9.834991,30.145996 -25.533997,108.751999 -34.937988,169.686996c-3.485016,22.582001 -6.175995,42.891998 -7.281006,57.187988c-3.938995,50.936005 -5.584,123.569 -4.625,198.156006c0.794006,61.76001 3.345001,124.84198 8.125,178.218994c1.951996,21.794983 4.42099,41.757019 7.187988,60.218018c17.833008,119.016968 49.093018,170.187988 49.093018,170.187988l7.843994,0l0,-896.656494z" fill="#ff0000" id="path2342"/>
    <path d="m329.125,76.5625l0,896.656494l12.218994,0l12.312012,0l31.656982,0l12.312012,0l10.625,0l0,-896.906494c-3.714996,-7.163696 -7.315002,-13.520599 -10.625,-18.3125c-4.501007,-6.516998 -8.653015,-11.2686 -12.312012,-14.3437c-7.599976,-6.386299 -13.302002,-6.657101 -16.625,-5.8125c-1.173981,-0.296799 -2.378998,-0.564499 -4.125,-0.375c-2.893982,0.313702 -6.586975,1.736 -10.906982,5.0312c-3.63501,2.7729 -7.790009,7.201199 -12.312012,13.4063c-3.768982,5.1712 -7.90799,12.354801 -12.218994,20.6562z" fill="#ff8500" id="path2293"/>
    <path d="m408.25,943.5l0.718994,0c0,0 27.563995,-45.052002 42.562012,-150.187012c2.018005,-14.146973 3.815979,-29.325989 5.281982,-45.687988c4.160004,-46.455994 6.354004,-101.559998 6.968018,-155.25c0.710999,-62.070007 -0.687012,-122.218994 -3.968018,-164.656006c-0.938995,-12.134979 -3.234985,-29.367004 -6.187988,-48.531006c-7.984009,-51.806 -21.324005,-118.675995 -29.687012,-144.312988c-5.54599,-16.998001 -10.778992,-30.481995 -15.687988,-41.5l0,750.125z" fill="#228de8" id="path2349"/>
    <path d="m329.125,193.593994c-4.916992,11.016998 -10.115997,24.298004 -15.656006,41.281006c-8.359985,25.623993 -21.695007,92.454987 -29.687988,144.25c-2.962006,19.195007 -5.248016,36.442993 -6.187012,48.593994c-3.347992,43.295013 -4.752991,105.038025 -3.937988,168.437012c0.675995,52.497009 2.843994,106.098999 6.906982,151.468994c1.658997,18.526001 3.742004,35.494995 6.093018,51.187988c15.158997,101.164001 41.75,144.687012 41.75,144.687012l0.718994,0l0,-749.906006z" fill="#228de8" id="path2347"/>
    <path d="m329.125,193.593994l0,749.906006l16.312988,0l10.468018,0l26.906982,0l10.468018,0l14.968994,0l0,-750.125c-5.412994,-12.149002 -10.431,-21.244003 -14.968994,-27.811996c-3.826019,-5.540009 -7.358002,-9.605011 -10.468018,-12.219009c-6.459991,-5.429001 -11.299988,-5.655991 -14.125,-4.937988c-0.997986,-0.251999 -2.015991,-0.473007 -3.5,-0.312012c-2.459991,0.266006 -5.609985,1.480011 -9.281982,4.281006c-3.089996,2.356995 -6.625,6.132004 -10.468018,11.406006c-4.888977,6.707993 -10.376984,16.513 -16.312988,29.812988z" fill="#ffff00" id="path2335"/>
   </g>
  </g>
 </g>
</svg>